<svg xmlns="http://www.w3.org/2000/svg" viewBox="0 0 500 500"><g id="freepik--Floor--inject-53"><g id="freepik--Field--inject-53"><ellipse id="freepik--Grass--inject-53" cx="249.39" cy="327.51" rx="244.73" ry="149.77" style="fill:#6A994E"></ellipse><ellipse id="freepik--grass--inject-53" cx="249.39" cy="327.51" rx="244.73" ry="149.77" style="fill:#fff;opacity:0.5"></ellipse><g style="opacity:0.30000000000000004"><path d="M26.61,328.13a7.76,7.76,0,0,0-1.19-2.39,8.42,8.42,0,0,0-1.13-1.18c-.27-.23-.67-.61-1.05-.51-.11,0-.1.24,0,.32.25.33.62.55.84.9a4.51,4.51,0,0,1,.4,1,18,18,0,0,1,.81,2.65,21.31,21.31,0,0,1,.34,2.51c0,.42.05.83.1,1.25a5.52,5.52,0,0,0,.29,1.13c0,.13.26.36.4.21a4.22,4.22,0,0,0,.76-3A10.8,10.8,0,0,0,26.61,328.13Z" style="fill:#6A994E"></path><path d="M29.69,315.29c-1.78,2.2-1.79,5.4-1.82,8.11,0,1.64,0,3.28.06,4.91a19.49,19.49,0,0,0,.44,5.24c.06.18.44.55.56.21.53-1.43.33-3.33.36-4.84s0-3.22,0-4.83a37.34,37.34,0,0,1,.22-4.36c.15-1.36.46-2.7.63-4.06C30.15,315.5,29.88,315.07,29.69,315.29Z" style="fill:#6A994E"></path><path d="M33.86,324c-.92.17-1.59,1.23-2,2a9.46,9.46,0,0,0-.81,2.23,16.13,16.13,0,0,0-.4,2.66,3.81,3.81,0,0,0,.38,2.84c.08.09.29.21.41.11.69-.58.52-1.71.58-2.53a18.93,18.93,0,0,1,.38-2.69,12,12,0,0,1,.74-2.19,10.22,10.22,0,0,0,.92-2.09C34.08,324.21,34,323.94,33.86,324Z" style="fill:#6A994E"></path><path d="M100.91,261.17a7.82,7.82,0,0,0-1.19-2.38,8.47,8.47,0,0,0-1.13-1.19c-.26-.22-.67-.61-1-.5-.11,0-.11.24,0,.31a11.94,11.94,0,0,1,.83.91,4.63,4.63,0,0,1,.41,1,18.41,18.41,0,0,1,.8,2.65,21,21,0,0,1,.34,2.51c0,.42.06.82.1,1.24a5.61,5.61,0,0,0,.29,1.14c0,.13.26.36.41.2a4.2,4.2,0,0,0,.75-3A10.47,10.47,0,0,0,100.91,261.17Z" style="fill:#6A994E"></path><path d="M104,248.34c-1.79,2.2-1.8,5.39-1.82,8.11,0,1.63,0,3.27,0,4.91a19.42,19.42,0,0,0,.44,5.23c.07.19.44.56.57.22.52-1.43.33-3.34.35-4.85s0-3.22,0-4.83a37.17,37.17,0,0,1,.22-4.35c.16-1.37.47-2.71.63-4.07C104.45,248.55,104.18,248.11,104,248.34Z" style="fill:#6A994E"></path><path d="M108.16,257c-.92.18-1.59,1.23-2,2a9.93,9.93,0,0,0-.81,2.23,16,16,0,0,0-.4,2.66c-.07,1-.27,2,.38,2.83.08.1.3.22.42.12.68-.58.51-1.72.57-2.54a20.1,20.1,0,0,1,.38-2.68,12.37,12.37,0,0,1,.74-2.2,9.63,9.63,0,0,0,.92-2.08C108.38,257.26,108.34,257,108.16,257Z" style="fill:#6A994E"></path><path d="M161.51,429.43a6.93,6.93,0,0,0-1-2.09,7.41,7.41,0,0,0-1-1c-.23-.2-.58-.53-.91-.44-.1,0-.09.21,0,.27.22.29.54.48.74.8a4.9,4.9,0,0,1,.35.85,16.64,16.64,0,0,1,.7,2.31,18.17,18.17,0,0,1,.3,2.2c0,.37,0,.72.09,1.09a4.23,4.23,0,0,0,.25,1c0,.12.23.31.35.18a3.66,3.66,0,0,0,.66-2.66A9,9,0,0,0,161.51,429.43Z" style="fill:#6A994E"></path><path d="M164.21,418.2c-1.56,1.93-1.57,4.72-1.59,7.1,0,1.43,0,2.86,0,4.29a17.14,17.14,0,0,0,.39,4.59c.06.16.38.48.49.18a13.63,13.63,0,0,0,.31-4.24c0-1.41,0-2.81,0-4.22a32.3,32.3,0,0,1,.19-3.81c.13-1.2.4-2.37.55-3.56C164.61,418.39,164.37,418,164.21,418.2Z" style="fill:#6A994E"></path><path d="M167.86,425.8c-.81.16-1.4,1.08-1.76,1.76a8.92,8.92,0,0,0-.71,1.95,13.94,13.94,0,0,0-.35,2.33,3.33,3.33,0,0,0,.34,2.47c.06.09.25.19.36.11.6-.51.45-1.5.5-2.22a16.82,16.82,0,0,1,.33-2.35,10.85,10.85,0,0,1,.65-1.92,8.66,8.66,0,0,0,.81-1.82C168,426,168,425.77,167.86,425.8Z" style="fill:#6A994E"></path><path d="M369.64,432.52a6.82,6.82,0,0,0-1-2.09,7.41,7.41,0,0,0-1-1c-.23-.2-.58-.53-.91-.44-.1,0-.09.21-.05.27.22.29.54.48.74.79a5.24,5.24,0,0,1,.35.85,17.2,17.2,0,0,1,.7,2.32,17.9,17.9,0,0,1,.3,2.2c0,.36.05.72.09,1.09a4.36,4.36,0,0,0,.25,1c0,.11.23.31.35.18a3.66,3.66,0,0,0,.66-2.66A9,9,0,0,0,369.64,432.52Z" style="fill:#6A994E"></path><path d="M372.34,421.29c-1.56,1.93-1.58,4.72-1.59,7.1,0,1.43,0,2.86,0,4.29a17.18,17.18,0,0,0,.39,4.59c.06.16.38.48.49.18a13.63,13.63,0,0,0,.31-4.24c0-1.41,0-2.81,0-4.22a32.19,32.19,0,0,1,.19-3.81c.13-1.2.4-2.37.55-3.56C372.74,421.48,372.5,421.1,372.34,421.29Z" style="fill:#6A994E"></path><path d="M376,428.89c-.81.16-1.4,1.08-1.76,1.76a8.92,8.92,0,0,0-.71,2,14,14,0,0,0-.35,2.32,3.36,3.36,0,0,0,.34,2.48c.06.09.25.19.36.1.6-.5.45-1.5.5-2.21a16.82,16.82,0,0,1,.33-2.35,10.58,10.58,0,0,1,.65-1.92,8.51,8.51,0,0,0,.81-1.83C376.17,429.1,376.14,428.86,376,428.89Z" style="fill:#6A994E"></path><path d="M442.13,392.29a7.22,7.22,0,0,1,1.08-2.19,8.16,8.16,0,0,1,1-1.08c.24-.21.61-.55.95-.46.11,0,.1.22.05.29-.23.3-.56.5-.77.83a4.18,4.18,0,0,0-.36.88,16.18,16.18,0,0,0-.74,2.43,17.74,17.74,0,0,0-.31,2.29c0,.39-.05.76-.1,1.14a4.66,4.66,0,0,1-.26,1c0,.12-.23.33-.37.19a3.87,3.87,0,0,1-.69-2.78A9.8,9.8,0,0,1,442.13,392.29Z" style="fill:#6A994E"></path><path d="M439.31,380.55c1.63,2,1.64,4.93,1.66,7.42,0,1.49,0,3-.05,4.48a17.49,17.49,0,0,1-.41,4.8c-.05.16-.39.5-.51.19a14.57,14.57,0,0,1-.33-4.43c0-1.47,0-2.94,0-4.42a35.24,35.24,0,0,0-.19-4c-.15-1.25-.43-2.47-.59-3.72C438.89,380.74,439.14,380.34,439.31,380.55Z" style="fill:#6A994E"></path><path d="M435.49,388.49c.85.16,1.46,1.13,1.84,1.84a9,9,0,0,1,.74,2,14.1,14.1,0,0,1,.36,2.43,3.46,3.46,0,0,1-.35,2.59c-.07.09-.27.2-.37.11-.63-.53-.48-1.57-.53-2.32a16.94,16.94,0,0,0-.35-2.46,11,11,0,0,0-.67-2,9,9,0,0,1-.85-1.9C435.3,388.71,435.34,388.46,435.49,388.49Z" style="fill:#6A994E"></path><path d="M380.73,265.8a6.82,6.82,0,0,0-1-2.09,7.41,7.41,0,0,0-1-1c-.23-.2-.58-.53-.91-.44-.09,0-.09.21,0,.27.22.29.54.48.73.79a4.48,4.48,0,0,1,.35.85,14.61,14.61,0,0,1,.7,2.31,18,18,0,0,1,.3,2.19c0,.37.05.73.09,1.09a4.79,4.79,0,0,0,.25,1c0,.11.23.31.35.18a3.63,3.63,0,0,0,.66-2.65A8.91,8.91,0,0,0,380.73,265.8Z" style="fill:#6A994E"></path><path d="M383.42,254.6c-1.56,1.92-1.57,4.7-1.59,7.07,0,1.43,0,2.86.05,4.28a16.67,16.67,0,0,0,.39,4.58c.05.16.38.48.49.18a13.9,13.9,0,0,0,.31-4.23c0-1.4,0-2.8,0-4.21a32.13,32.13,0,0,1,.19-3.8c.14-1.19.41-2.36.55-3.55C383.82,254.78,383.58,254.4,383.42,254.6Z" style="fill:#6A994E"></path><path d="M387.06,262.17c-.81.16-1.39,1.08-1.75,1.76a8.36,8.36,0,0,0-.71,1.94,14,14,0,0,0-.35,2.32,3.33,3.33,0,0,0,.34,2.47c.06.09.25.19.36.1.6-.5.45-1.49.5-2.21a16.89,16.89,0,0,1,.33-2.34,10.75,10.75,0,0,1,.65-1.91,9.16,9.16,0,0,0,.8-1.82C387.24,262.38,387.21,262.15,387.06,262.17Z" style="fill:#6A994E"></path><path d="M447.21,303.73a7,7,0,0,0-1.09-2.19,8.08,8.08,0,0,0-1-1.08c-.24-.21-.61-.55-1-.46-.1,0-.09.22,0,.29a10,10,0,0,1,.76.83,4.83,4.83,0,0,1,.37.88,15.43,15.43,0,0,1,1,4.72c0,.39.06.76.1,1.14a5.28,5.28,0,0,0,.26,1c0,.12.24.33.37.18a3.74,3.74,0,0,0,.69-2.77A9.4,9.4,0,0,0,447.21,303.73Z" style="fill:#6A994E"></path><path d="M450,292c-1.63,2-1.64,4.93-1.66,7.42,0,1.49,0,3,.05,4.48a17.49,17.49,0,0,0,.4,4.8c.06.16.4.5.52.19a14.26,14.26,0,0,0,.32-4.43c0-1.47,0-2.95,0-4.42a35.24,35.24,0,0,1,.2-4c.14-1.25.43-2.47.58-3.72C450.45,292.18,450.2,291.78,450,292Z" style="fill:#6A994E"></path><path d="M453.84,299.93c-.84.16-1.45,1.13-1.83,1.84a8.58,8.58,0,0,0-.74,2,15.16,15.16,0,0,0-.37,2.43,3.55,3.55,0,0,0,.35,2.59c.07.09.27.2.38.11.63-.54.47-1.57.53-2.32a18.42,18.42,0,0,1,.34-2.46,11.89,11.89,0,0,1,.68-2,8.67,8.67,0,0,0,.84-1.9C454,300.15,454,299.9,453.84,299.93Z" style="fill:#6A994E"></path><path d="M235.31,451.59a7.25,7.25,0,0,0-1.09-2.19,8.77,8.77,0,0,0-1-1.08c-.25-.21-.62-.56-1-.46-.1,0-.09.22,0,.28.23.31.57.51.77.83a4.64,4.64,0,0,1,.37.89,16,16,0,0,1,.73,2.42,17.89,17.89,0,0,1,.31,2.3c0,.38.06.76.1,1.14a4.66,4.66,0,0,0,.26,1c0,.12.24.32.37.18a3.81,3.81,0,0,0,.69-2.78A9.4,9.4,0,0,0,235.31,451.59Z" style="fill:#6A994E"></path><path d="M238.13,439.85c-1.63,2-1.65,4.93-1.67,7.41,0,1.5,0,3,0,4.49a17.78,17.78,0,0,0,.41,4.79c.06.17.4.51.51.2a14.62,14.62,0,0,0,.33-4.44c0-1.47,0-2.94,0-4.41a35.54,35.54,0,0,1,.2-4c.14-1.24.43-2.47.58-3.71C238.55,440,238.29,439.64,238.13,439.85Z" style="fill:#6A994E"></path><path d="M241.94,447.79c-.84.16-1.46,1.12-1.83,1.83a9.44,9.44,0,0,0-.75,2,16.69,16.69,0,0,0-.36,2.44,3.51,3.51,0,0,0,.35,2.59c.07.08.27.19.38.1.63-.53.47-1.57.53-2.31a16.93,16.93,0,0,1,.34-2.46,11.89,11.89,0,0,1,.68-2,8.67,8.67,0,0,0,.84-1.9C242.14,448,242.1,447.76,241.94,447.79Z" style="fill:#6A994E"></path></g></g></g><g id="freepik--Sun--inject-53"><circle id="freepik--sun--inject-53" cx="110.94" cy="67.5" r="26.3" style="fill:#ffbda7"></circle></g><g id="freepik--Clouds--inject-53"><path id="freepik--Cloud--inject-53" d="M340.43,43c0-4.35,4.78-7.38,10.18-7.89,6.37-.6,10.88,2.24,11,7.26,4.17-1.71,8.56-.62,8.23,4,1.08-1.25,5.13-1.21,6.59-.86a5.67,5.67,0,0,1,3.62,3.09,4.17,4.17,0,0,1,.38,2.34c2.43-.8,8-1.28,9.33.94,2.46,4-7.36,4.09-9.34,2.89-.42,3.09-11,3.59-13.53.75-2,2-4.86,2.45-7.95,2.64-5.22.31-8.42-1.46-12.49-3.54-4.43,3.75-12.09,3.82-16.08-.47-1,1-3.82,1.25-6.07.72-1.47-.35-1.81-1-1.81-1a12.86,12.86,0,0,1-2.71.81c-2.89.61-8.28,0-6-2.64.77-.89,3.59-1.45,4.78-1.17,1.26-2.49,6.33-4.84,9.24-2.74.11-3,2.86-5.36,6.73-6C335.84,41.91,339,41.73,340.43,43Z" style="fill:#ebebeb"></path><path id="freepik--cloud--inject-53" d="M412.62,79.55c0-5.08,5.57-8.61,11.87-9.21,7.43-.7,12.7,2.61,12.88,8.46,4.86-2,10-.71,9.59,4.63,1.27-1.46,6-1.42,7.69-1A6.69,6.69,0,0,1,458.89,86a5,5,0,0,1,.44,2.73c2.83-.93,9.27-1.49,10.88,1.1,2.87,4.63-8.59,4.77-10.9,3.38-.49,3.59-12.8,4.18-15.78.86-2.33,2.35-5.67,2.87-9.28,3.08-6.09.36-9.83-1.7-14.58-4.13-5.17,4.39-14.1,4.46-18.76-.55-1.19,1.13-4.46,1.47-7.08.85-1.72-.41-2.12-1.15-2.12-1.15a14.82,14.82,0,0,1-3.16,1c-3.37.71-9.66,0-7-3.08.9-1,4.18-1.69,5.58-1.37,1.47-2.9,7.38-5.64,10.78-3.19.13-3.51,3.34-6.26,7.85-7C407.26,78.32,410.89,78.11,412.62,79.55Z" style="fill:#ebebeb"></path></g><g id="freepik--Fence--inject-53"><g id="freepik--fence--inject-53"><g id="freepik--fence--inject-53"><polygon points="27.11 287.63 27.11 205.84 33.17 193.34 39.36 198.8 39.36 280.59 27.11 287.63" style="fill:#ebebeb"></polygon><polygon points="27.11 205.84 24.05 204.08 24.05 285.87 27.11 287.63 27.11 205.84" style="fill:#e0e0e0"></polygon><polygon points="33.17 193.34 30.11 191.52 24.05 204.08 27.11 205.84 33.17 193.34" style="fill:#f5f5f5"></polygon><polygon points="72.39 261.61 72.39 179.81 78.45 167.32 84.64 172.77 84.64 254.56 72.39 261.61" style="fill:#ebebeb"></polygon><polygon points="72.39 179.81 69.33 178.05 69.33 259.85 72.39 261.61 72.39 179.81" style="fill:#e0e0e0"></polygon><polygon points="78.45 167.32 75.39 165.49 69.33 178.05 72.39 179.81 78.45 167.32" style="fill:#f5f5f5"></polygon><polygon points="117.67 235.58 117.67 153.79 123.73 141.29 129.93 146.75 129.93 228.54 117.67 235.58" style="fill:#ebebeb"></polygon><polygon points="117.67 153.79 114.61 152.03 114.61 233.82 117.67 235.58 117.67 153.79" style="fill:#e0e0e0"></polygon><polygon points="123.73 141.29 120.67 139.46 114.61 152.03 117.67 153.79 123.73 141.29" style="fill:#f5f5f5"></polygon><polygon points="162.95 209.56 162.95 127.76 169.02 115.27 175.21 120.72 175.21 202.51 162.95 209.56" style="fill:#ebebeb"></polygon><polygon points="162.95 127.76 159.89 126 159.89 207.8 162.95 209.56 162.95 127.76" style="fill:#e0e0e0"></polygon><polygon points="169.02 115.27 165.95 113.44 159.89 126 162.95 127.76 169.02 115.27" style="fill:#f5f5f5"></polygon><polygon points="11.25 270.65 188.74 168.8 188.74 173.61 11.25 275.46 11.25 270.65" style="fill:#ebebeb"></polygon><polygon points="11.25 270.65 8.1 268.85 8.1 273.66 11.25 275.46 11.25 270.65" style="fill:#e0e0e0"></polygon><polygon points="188.74 168.8 11.25 270.65 8.1 268.85 185.57 166.97 188.74 168.8" style="fill:#f5f5f5"></polygon><polygon points="11.25 239.81 188.74 137.96 188.74 142.77 11.25 244.63 11.25 239.81" style="fill:#ebebeb"></polygon><polygon points="11.25 239.81 8.1 238.01 8.1 242.82 11.25 244.63 11.25 239.81" style="fill:#e0e0e0"></polygon><polygon points="188.74 137.96 11.25 239.81 8.1 238.01 185.57 136.13 188.74 137.96" style="fill:#f5f5f5"></polygon></g><g id="freepik--fence--inject-53"><polygon points="472.89 287.63 472.89 205.84 466.83 193.34 460.64 198.8 460.64 280.59 472.89 287.63" style="fill:#ebebeb"></polygon><polygon points="472.89 205.84 475.95 204.08 475.95 285.87 472.89 287.63 472.89 205.84" style="fill:#e0e0e0"></polygon><polygon points="466.83 193.34 469.89 191.52 475.95 204.08 472.89 205.84 466.83 193.34" style="fill:#f5f5f5"></polygon><polygon points="427.61 261.61 427.61 179.81 421.55 167.32 415.36 172.77 415.36 254.56 427.61 261.61" style="fill:#ebebeb"></polygon><polygon points="427.61 179.81 430.67 178.05 430.67 259.85 427.61 261.61 427.61 179.81" style="fill:#e0e0e0"></polygon><polygon points="421.55 167.32 424.61 165.49 430.67 178.05 427.61 179.81 421.55 167.32" style="fill:#f5f5f5"></polygon><polygon points="382.33 235.58 382.33 153.79 376.26 141.29 370.07 146.75 370.07 228.54 382.33 235.58" style="fill:#ebebeb"></polygon><polygon points="382.33 153.79 385.39 152.03 385.39 233.82 382.33 235.58 382.33 153.79" style="fill:#e0e0e0"></polygon><polygon points="376.26 141.29 379.33 139.46 385.39 152.03 382.33 153.79 376.26 141.29" style="fill:#f5f5f5"></polygon><polygon points="337.05 209.56 337.05 127.76 330.98 115.27 324.79 120.72 324.79 202.51 337.05 209.56" style="fill:#ebebeb"></polygon><polygon points="337.05 127.76 340.11 126 340.11 207.8 337.05 209.56 337.05 127.76" style="fill:#e0e0e0"></polygon><polygon points="330.98 115.27 334.05 113.44 340.11 126 337.05 127.76 330.98 115.27" style="fill:#f5f5f5"></polygon><polygon points="488.75 270.65 311.26 168.8 311.26 173.61 488.75 275.46 488.75 270.65" style="fill:#ebebeb"></polygon><polygon points="488.75 270.65 491.9 268.85 491.9 273.66 488.75 275.46 488.75 270.65" style="fill:#e0e0e0"></polygon><polygon points="311.26 168.8 488.75 270.65 491.9 268.85 314.43 166.97 311.26 168.8" style="fill:#f5f5f5"></polygon><polygon points="488.75 239.81 311.26 137.96 311.26 142.77 488.75 244.63 488.75 239.81" style="fill:#ebebeb"></polygon><polygon points="488.75 239.81 491.9 238.01 491.9 242.82 488.75 244.63 488.75 239.81" style="fill:#e0e0e0"></polygon><polygon points="311.26 137.96 488.75 239.81 491.9 238.01 314.43 136.13 311.26 137.96" style="fill:#f5f5f5"></polygon></g></g></g><g id="freepik--Shadows--inject-53"><ellipse id="freepik--Shadow--inject-53" cx="107.17" cy="399.95" rx="39.45" ry="22.78" style="fill:#6A994E;opacity:0.30000000000000004"></ellipse><ellipse id="freepik--shadow--inject-53" cx="320.42" cy="402.42" rx="50.32" ry="29.05" style="fill:#6A994E;opacity:0.30000000000000004"></ellipse><ellipse id="freepik--shadow--inject-53" cx="192.66" cy="329.97" rx="101.68" ry="58.71" style="fill:#6A994E;opacity:0.30000000000000004"></ellipse><path id="freepik--shadow--inject-53" d="M371.31,318l6.3-3.64a3,3,0,0,1,2.75,0l25.69,14.83a.84.84,0,0,1,0,1.59l-1.08.63,14.44,8.33,17.75-10.25a4.95,4.95,0,0,1,6.56,1.54l20,30.05c.95,1.42.78,2.4.48,3a2.22,2.22,0,0,1-2.12,1.1A5.14,5.14,0,0,1,461,365l-55.35-12.29c-1.92-.43-2.35-1.45-2.44-2s0-1.66,1.72-2.65L415.51,342l-14.44-8.33-1.31.76a3.05,3.05,0,0,1-2.76,0l-25.69-14.83A.84.84,0,0,1,371.31,318Z" style="fill:#6A994E;opacity:0.30000000000000004"></path></g><g id="freepik--Character--inject-53"><g id="freepik--character--inject-53"><g id="freepik--Bottom--inject-53"><path d="M173.58,324.11c-1.6,1.13-6.89-2-9.92-5.16s-11.68-8.76-15-11.24a95.38,95.38,0,0,0-14.68-7.93c-8.18-3.22-11.84-4-15.35-8.91a9.17,9.17,0,0,1-1.58-7.48s2.68,4.43,15.71,4.32S153,285,157.53,286.32s16.05,6.58,24.89,1.47c2.75-1.59,2.16-4.73,1.15-5.23,1.84,1.4,2.19,3.13,2.5,4.91.2,1.14.42,2.72.59,3.77.45,2.7,1.09,7.75,4.19,10.63,1.69,1.58,2.3,2.07,1.4,3.51Z" style="fill:#37474f"></path><path d="M120.57,278.3c-4.23,2.63-4,4.39-3.95,6.9s1,3.4,3.41,4.66c3,1.56,8.61,2.39,14.32,2.05s17.86-3.11,21.3-2.27,8.93,4.05,16.07,4.38,10.29-1.19,12.33-2.68a4.55,4.55,0,0,0,2-3.81s.56-4.38-4.88-6.56C176.49,279.07,120.57,278.3,120.57,278.3Z" style="fill:#263238"></path><path d="M191.56,305c-5.1-2.91-8.88,4.07-12,6.78s-4.79,2.68-10.22.26a33.42,33.42,0,0,0-8.75-2.51s4.48,2.35,6,4.69-1.09,3.38,1.31,5.32c3.77,3,7.62,6.17,10,8.11l5.81,5.18,14.55,12.43,12-29.58Z" style="fill:#ffa8a7"></path><path d="M117,283.39c-.57-4.5,12.33-11.76,26-10.22s12,4.31,21.67,5,14.17.56,18.92,4.38c2.32,1.83,2.32,7.12-7.25,8s-15.74-3.2-20-4.08-12.55,1.91-25.31,2.06C120.72,288.66,117.49,287.19,117,283.39Z" style="fill:#e0e0e0"></path><path d="M116.32,328c-1.61,1.13-6.89-2-9.92-5.16s-11.68-8.76-15.05-11.23a95.48,95.48,0,0,0-14.68-7.94c-8.18-3.22-11.84-4-15.35-8.91a9.17,9.17,0,0,1-1.58-7.48s2.68,4.44,15.71,4.32,20.31-2.74,24.82-1.39,16,6.58,24.89,1.48c2.75-1.59,2.16-4.74,1.15-5.24,1.84,1.41,2.19,3.13,2.5,4.91.2,1.15.42,2.72.59,3.78.45,2.69,1.09,7.74,4.19,10.63,1.69,1.57,2.3,2.07,1.4,3.5Z" style="fill:#455a64"></path><path d="M63.31,282.17c-4.23,2.63-4,4.39-4,6.91s1,3.4,3.41,4.65c3,1.57,8.61,2.39,14.32,2.06s17.86-3.11,21.3-2.27,8.93,4,16.07,4.38,10.29-1.19,12.33-2.68a4.56,4.56,0,0,0,2-3.81s.56-4.38-4.88-6.57C119.23,283,63.31,282.17,63.31,282.17Z" style="fill:#263238"></path><path d="M134.3,308.86c-5.1-2.91-8.88,4.07-12,6.78s-4.79,2.69-10.22.26a33.89,33.89,0,0,0-8.75-2.51s4.48,2.35,6,4.7-1.1,3.37,1.31,5.31c3.77,3,7.62,6.17,10,8.11l5.81,5.19L141,349.13l12-29.58Z" style="fill:#ffa8a7"></path><path d="M59.74,287.26c-.58-4.5,12.33-11.76,26-10.22s12,4.31,21.67,5,14.17.56,18.92,4.37c2.32,1.84,2.32,7.12-7.25,8s-15.74-3.19-20-4.07-12.55,1.9-25.31,2.05C63.46,292.53,60.23,291.06,59.74,287.26Z" style="fill:#e0e0e0"></path><g id="freepik--Leg--inject-53"><path d="M164.73,301.89c3.6-8.14,9.44-8.15,9.44-8.15l29.37,11.76S136.75,254.45,138,246.1l84-11.51s44.49,68.65,51.12,92.48c3.91,14.05,3.37,24.16-2.89,30.15C259.59,367.36,246,364.64,224,354c-22.3-10.81-57.41-27.47-57.41-27.47S159.06,314.75,164.73,301.89Z" style="fill:#455a64"></path><path d="M163.82,304.29c.26-.79.56-1.59.91-2.4.23-.51.46-1,.7-1.43l.2-.34c.18-.31.35-.63.54-.91a2.83,2.83,0,0,1,.2-.28c.19-.28.37-.56.56-.81.07-.08.13-.14.19-.22.2-.25.4-.49.6-.71l.15-.16c.22-.22.43-.44.64-.63l.13-.11c.22-.2.44-.38.65-.55l.11-.08.66-.46.09-.05c.22-.14.44-.27.65-.38l.07,0,.62-.3,0,0a5.5,5.5,0,0,1,.59-.23h0l.55-.18h0l.46-.12h0l.37-.07h0l.26,0h.26l4.24,1.7,25.13,10.06h0s-6-8.86-11.33-18.32l0,0h0c-.21-.38-.43-.76-.64-1.15l0,0,0-.05-.6-1.11,0-.06c-1-1.75-1.86-3.5-2.68-5.2l-.05-.1c-.27-.56-.52-1.1-.77-1.64l33.09-23.16c.76,17.1-13,30.42-13,30.42s23.13,39.18,31.7,56.61c6.72,13.68,17.76,16.91,26.61,13.9,7.87-2.69,9.46-9.05,9.64-9.89-.5,4.78-2.18,8.64-5.2,11.53C259.59,367.36,246,364.64,224,354c-22.3-10.81-57.39-27.46-57.41-27.47h0s-6.17-9.63-3.1-21C163.58,305.08,163.69,304.68,163.82,304.29Z" style="fill:#37474f"></path><path d="M195.35,316.45c-8.34-10.69-31.42-25.31-36.49-28.65,3.51-3.35,6.9-3.1,7-3.09h0l14.09,7.17,14.1,7.18s13.63,29.48,24.71,34A52.53,52.53,0,0,1,195.35,316.45Z" style="opacity:0.15"></path></g><g id="freepik--Le--inject-53"><path d="M133.63,324.82a25.87,25.87,0,0,1,9.19-11.19l4.6,2.55S138,299.33,131.65,287c-10.64-20.65-8.28-47.47,7.58-61l49.54,17.23,33.18-8.6c4.28,33.22-24.58,49.77-24.58,49.77S217.3,329.07,221.13,345c3.61,15,1.05,26.32-5.72,31.73-11.46,9.15-27.4,9.34-47.32-4.92-18.89-13.52-37.52-31.49-37.52-31.49S129.34,335.42,133.63,324.82Z" style="fill:#455a64"></path><path d="M142.82,313.63l4.6,2.55h0s19.9,32.53,31,37c0,0-14.17-3.9-23.4-16.57C149,328.34,142.82,313.63,142.82,313.63Z" style="fill:#37474f"></path></g><path d="M145.74,244.85c-.29.56-.56,1.12-.84,1.69s-.48,1.15-.72,1.73a43.38,43.38,0,0,0-2,7.17,41.8,41.8,0,0,0-.8,7.41,20.81,20.81,0,0,0,1,7.39,61.6,61.6,0,0,1,.68-7.25c.11-.6.2-1.19.28-1.79s.21-1.19.31-1.78c.21-1.19.4-2.38.66-3.56s.47-2.37.71-3.55l.38-1.77c.15-.58.28-1.17.41-1.76a34.71,34.71,0,0,1,2.17-6.92A11.23,11.23,0,0,0,145.74,244.85Zm4.85,14.82c-.08,1.76-.1,3.52-.08,5.28s.13,3.51.31,5.26a51.28,51.28,0,0,0,2,10.34c-.14-3.51-.22-7-.23-10.42,0-.87,0-1.73,0-2.6s0-1.72.05-2.58c0-1.72.08-3.45.2-5.16q.24-5.15,1-10.25a52.4,52.4,0,0,1,2.44-10,29.12,29.12,0,0,0-4.12,9.71A57.23,57.23,0,0,0,150.59,259.67Zm61.18,97.53a125,125,0,0,0-5.27-18.74q-3.33-9.13-7.5-17.91c-2.77-5.85-5.77-11.58-9.08-17.14l7.5,17.84c2.44,5.95,4.84,11.92,7,18,1.11,3,2.12,6.06,3.08,9.11.45,1.54,1,3.06,1.37,4.61l.62,2.32c.21.77.44,1.54.6,2.32a69.24,69.24,0,0,1,2.29,19l.37-2.4c0-.41.12-.81.16-1.21l.06-1.22.09-2.44-.08-2.44A70.09,70.09,0,0,0,211.77,357.2Zm50.61-15.29a70,70,0,0,0-2.3-9.48,125.64,125.64,0,0,0-7.41-18q-4.36-8.7-9.52-16.93c-3.43-5.49-7.07-10.84-11-16l9.51,16.85c3.12,5.64,6.19,11.28,9,17,1.44,2.86,2.8,5.77,4.11,8.7.62,1.47,1.3,2.92,1.89,4.41l.88,2.23c.3.74.62,1.48.87,2.24a69.47,69.47,0,0,1,4.48,18.63l.08-2.42c0-.41,0-.82,0-1.22l-.08-1.22-.19-2.43Z" style="fill:#37474f"></path></g><g id="freepik--Top--inject-53"><path d="M340.29,258.2c0-.07.08-.12.2-.16a.73.73,0,0,1,.5,0,24,24,0,0,1,6.9,4.08,7.1,7.1,0,0,1,1.67,1.61c1.34,2,2,5.5,4.72,6.31,1.23.36,2.63-.12,2.44-1.57s-.38-2.81-.56-4.21a9,9,0,0,0-.77-3,21.37,21.37,0,0,0-4.34-4.92,30.83,30.83,0,0,0-5.41-4.17c-2.2-1.28-4.61-2.19-6.85-3.39a.61.61,0,0,1-.31-.28c-.1-.25.15-.49.38-.62a17.53,17.53,0,0,1,4.06-1.64,12.32,12.32,0,0,0,4.8-2.39,5.63,5.63,0,0,0,1.45-1.81,3.47,3.47,0,0,0,0-2.94c-.47-1-1.53-.52-2.35-.4l-3.19.5a51,51,0,0,1-6.16.59c-3.7.08-7.49,0-11.07,1-1.37.42-2.68,1-4,1.53-5.81,2.25-11.83-2.57-16.93-5.58a104,104,0,0,1-9-6.48c-2.82-2.12-5.42-3.91-8.11-6.2,0,0-4.24-28.6-6.5-48.16-3.41-29.57-16.69-31-25.55-31.64l-8.69,21.76s3.29,18.59,7.89,44.49c3.19,18,4.61,27.21,7.07,30.35,2.22,2.83,5.79,5.05,17.85,10.12,9.77,4.1,26.42,9,28.83,10.91,1.06.84,2,1.83,3,2.68a17.7,17.7,0,0,0,8.51,3.74c2.77.41,5.26.33,7.66,2.26a23.85,23.85,0,0,1,5.78,5.95c1.57,2.6,2.05,5.63,5.24,6.79.61.22,1.89.63,2.08-.3a2.09,2.09,0,0,0-.14-1c-.29-.89-.57-1.79-.86-2.69A34.35,34.35,0,0,0,338.9,275a23.6,23.6,0,0,0-2.94-4.66,1.62,1.62,0,0,1-.46-1A57.2,57.2,0,0,1,341,274c1.53,1.48,2.06,3.68,2.71,5.64a6.22,6.22,0,0,0,1.72,2.77,2.64,2.64,0,0,0,.58.41c1.28.65,2-.33,2-1.55,0-.95,0-1.9,0-2.85a3.26,3.26,0,0,0,2.75.06,1.13,1.13,0,0,0,.19-.86,19.27,19.27,0,0,0-.29-2.12,70.87,70.87,0,0,0-1.75-7.43,8.17,8.17,0,0,0-2.75-4.55c-1.06-1-2.12-2-3.22-3l-1.66-1.36C341.06,259,340.2,258.53,340.29,258.2Z" style="fill:#ffa8a7"></path><path d="M337.21,264.11a22.09,22.09,0,0,1,3.93,2.56,26.17,26.17,0,0,1,3.45,3.24l.11.15a1.33,1.33,0,0,1,.12.24l.1.28q.1.29.18.57c.12.39.22.77.31,1.14l.52,2.25a6.51,6.51,0,0,0,2.09,3.88,4.1,4.1,0,0,1-1.86-1.47,9.18,9.18,0,0,1-1.07-2.15c-.28-.74-.48-1.5-.71-2.23-.11-.37-.21-.73-.33-1.09a4.72,4.72,0,0,0-.18-.53l-.09-.26s0,0,0,0l-.06-.08c-.93-1.1-2.08-2.2-3.15-3.28S338.36,265.17,337.21,264.11Z" style="fill:#f28f8f"></path><path d="M288.33,224.12s-.12-.92-.32-2.52c-6.41-1.79-16.07,2.67-18.21,9.12C275.24,224.94,282.19,222.34,288.33,224.12Z" style="fill:#f28f8f"></path><path d="M334.6,250.18a6,6,0,0,1-1,1.5c-.41.51-.81,1-1.24,1.47a18.91,18.91,0,0,1-2.9,2.53,13.79,13.79,0,0,1-6.37,2.57,9.72,9.72,0,0,1-3.76-.33c-.44-.13-.14-1.18.3-1.05a10.87,10.87,0,0,0,8.2-1.23,19.26,19.26,0,0,0,3.43-2.47c.53-.47,1.06-.94,1.57-1.45a12.58,12.58,0,0,1,1.65-1.62S334.63,250.09,334.6,250.18Z" style="fill:#f28f8f"></path><path d="M288.33,218.29c-5.07-40.17-6.74-62-14.41-68.34-7-5.75-18.6-5.85-18.6-5.85l-8.64,22.74,10.79,58C269.71,225.47,280.45,223.46,288.33,218.29Z" style="fill:#6A994E"></path><path d="M288.33,218.29c-5.07-40.17-6.74-62-14.41-68.34-7-5.75-18.6-5.85-18.6-5.85l-8.64,22.74,10.79,58C269.71,225.47,280.45,223.46,288.33,218.29Z" style="fill:#fff;opacity:0.85"></path><path d="M256.54,222.51v.05l1.79,8.95s7.25,2.64,17.63-.36,13.46-7.22,13.46-7.22l-1.3-9.65s-2.8,4.13-14,7.29A40.6,40.6,0,0,1,256.54,222.51Z" style="fill:#6A994E"></path><path d="M185.29,267.48c35.16,0,46-18,46-18,5.92-9.86,10.29-17,12.57-19.27,2.92-2.95,7-6.29,13.29-12,16.92-1,24.73-12.61,23.26-28.93-1.14-12.62-4-20.86-9.27-32.87s-13-13.06-17.94-13.11c-11.47-.12-21.69-2-46.47,5-1.25.59-4.16,1.41-6.68,2.41C182,158,176.4,170.12,165,198.15c-5.34,13.09-21.33,20.16-30.55,32.57C134.8,254.2,163.31,267.48,185.29,267.48Z" style="fill:#6A994E"></path><path d="M185.29,267.48c35.16,0,46-18,46-18,5.92-9.86,10.29-17,12.57-19.27,2.92-2.95,7-6.29,13.29-12,16.92-1,24.73-12.61,23.26-28.93-1.14-12.62-4-20.86-9.27-32.87s-13-13.06-17.94-13.11c-11.47-.12-21.69-2-46.47,5-1.25.59-4.16,1.41-6.68,2.41C182,158,176.4,170.12,165,198.15c-5.34,13.09-21.33,20.16-30.55,32.57C134.8,254.2,163.31,267.48,185.29,267.48Z" style="fill:#fff;opacity:0.7000000000000001"></path><path d="M244,220.7c-12.39,4.37-31.28,2-36.5-13.88C206.66,220.56,225.22,233,244,220.7Z" style="fill:#6A994E;opacity:0.30000000000000004"></path><g id="freepik--Head--inject-53"><path d="M303.61,99.33a16.42,16.42,0,0,0,1-2,7.89,7.89,0,0,0-2.34-8.79c-2.68-2.15-6.75-2.49-8.69-5.32-1.15-1.67-1.26-3.81-1.81-5.75a13,13,0,0,0-13.35-9.12c-2.76.26-5.56,1.43-8.23.68-2.49-.7-4-2.92-6.18-4.13a15,15,0,0,0-12.24-1,14.14,14.14,0,0,0-8.5,8.79,10.58,10.58,0,0,0-7.66.79c-3.23,1.71-4.62,5.52-6.38,8.73a12.5,12.5,0,0,1-5,5.36c-2.26,1.12-4.32.94-6.44,2.65-2,1.57-3.72,3.7-3.82,6.2s1.39,4.58,2.26,6.84.87,5.36-1.24,6.54-4.45-.22-6.35-1.52c-.67,2,.37,4.34,2,5.76a15.74,15.74,0,0,0,5.77,2.8,9.1,9.1,0,0,0,1.27,8.37c2.55,3.09,6.55,2.19,8.8,5.51a30.07,30.07,0,0,0,2.39,3.74c2,2.15,5.19,2.55,8.11,2.52,2.21,0,4.55-.28,6.73.25s2.13,2,3.32,3.58c2.2,3,6.29,4,10,3.71,2.24-.2,4.49-.8,6.7-.38,2.42.45,4.44,2.06,6.68,3.08a14.55,14.55,0,0,0,12-.19,7.38,7.38,0,0,0,3.93-3.86c.38-.83,1.78-5.91.68-6.49a6.45,6.45,0,0,1,3.29,4.57,6.54,6.54,0,0,0,1-5.76,10.66,10.66,0,0,0-3.32-5,33.4,33.4,0,0,1-2.8-2.51,4.6,4.6,0,0,1-1.28-3.43,4.24,4.24,0,0,1,2.13-2.93c3-1.82,6.86-1.32,9.51-3.83a9.2,9.2,0,0,0,2.84-7.13,5.95,5.95,0,0,0,9.17-3.38,4.42,4.42,0,0,1-5.4-4.16A8.41,8.41,0,0,1,303.61,99.33Z" style="fill:#263238"></path><path d="M291,107.94c-.07,2.25-1.72,5.41-2.2,7.62-1,4.39-.43,7.42-2.17,13.58-4.24,15-13.3,17.77-18,18.54-2.91.48-5.29.25-10.88-1.78l-3.3,9.3s7.69,9.45.27,24.13a159.18,159.18,0,0,1-12.39-13.64c-10-11.24-16.69-18.61-16.69-18.61l8.46-21.61s-6.19,2.4-10-4.77c-2.95-5.56-.95-14.3,4.25-16.38s9.76.59,10.47,7.21c.51,4.7,4.65,2.42,5.29-2.33s2.4-3,4.85-4.54c6.11-3.87,2.74-9.75,8.51-13.6,3.84-2.56,11.42-2.6,16.09,3.57C278.94,91.35,291.5,92,291,107.94Z" style="fill:#ffa8a7"></path><path d="M263.22,126.93l7,4.9a4.14,4.14,0,0,1-5.89,1.34A4.64,4.64,0,0,1,263.22,126.93Z" style="fill:#b16668"></path><path d="M262.75,128a4.59,4.59,0,0,0,1.59,5.22,4.91,4.91,0,0,0,.67.37,3.72,3.72,0,0,0,.2-.59A4.28,4.28,0,0,0,262.75,128Z" style="fill:#f28f8f"></path><path d="M265.71,111.56a2.74,2.74,0,1,1-2.26-3.23A2.8,2.8,0,0,1,265.71,111.56Z" style="fill:#263238"></path><path d="M285.41,114.66a2.69,2.69,0,1,1-2.22-3.19A2.73,2.73,0,0,1,285.41,114.66Z" style="fill:#263238"></path><path d="M265.74,102.92l-6.81,2.65a4,4,0,0,1,2.22-5A3.5,3.5,0,0,1,265.74,102.92Z" style="fill:#263238"></path><path d="M287,109l-6.2-3.73a3.39,3.39,0,0,1,4.81-1.48A4,4,0,0,1,287,109Z" style="fill:#263238"></path><polygon points="271.84 109.65 271.67 127.28 281.21 124.8 271.84 109.65" style="fill:#f28f8f"></polygon><path d="M257.75,145.9c-10.81-4.54-18.68-12.7-19.35-20.21A14.4,14.4,0,0,0,240.79,138c5,7.13,15.71,11.41,15.71,11.41Z" style="fill:#f28f8f"></path></g><path d="M260.92,220.34c6.06-.58,23.31-7.74,20.42-29.81s-23.59-44.63-23.59-44.63L256,151s12.77,15.95,15.72,24.21,2.95,13.38,2.95,13.38-17.84,7.55-53.21,2.49c-.64-20.68,5.1-42.06,5.1-42.06l-.87-1.91,1-2.61-4.62.42c-3.42,10.32-8.23,32.16-10.56,52.59-13.71,21.33-39.79,20.7-39.79,20.7a29.81,29.81,0,0,1-11-13.71l-4.75,4.47A38,38,0,0,0,167.73,224c-4.14,6.77-10.71,19-12.33,34.62-3.9,37.59,27.78,81.62,27.78,81.62s21.76,1.4,47.89-9,36.43-23.89,36.43-23.89-9.13-20.88-17.09-33.66-15-24-15-24,6.1-14.16,10.7-18.52S254.87,220.93,260.92,220.34Z" style="fill:#263238"></path><path d="M264.27,161.53c-1-4.83-2.47-7.19-3.47-9.76a14,14,0,0,0-3.37-5l-3,8.42a59,59,0,0,1,1.7,13.89,47,47,0,0,1-1.43,10.24s3.27-3.06,5.51-10.67c.8-2.72,4.68,2.59,4.68,2.59S265.89,169.18,264.27,161.53Zm-29.42-11.34a48.5,48.5,0,0,1-6.19-10.81L230,136s-2.19-.06-4.49,2.82-7.51,6.73-7.51,6.73c-.23,10,14,23.08,15.93,28.62,6.58-1.14,9.31-5.12,9.31-5.12s6.93,7.44,11.5,10.29c0,0-2.27-4-7.95-14.3C243.05,158.3,239.11,155.88,234.85,150.19Z" style="fill:#6A994E"></path><path d="M264.27,161.53c-1-4.83-2.47-7.19-3.47-9.76a14,14,0,0,0-3.37-5l-3,8.42a59,59,0,0,1,1.7,13.89,47,47,0,0,1-1.43,10.24s3.27-3.06,5.51-10.67c.8-2.72,4.68,2.59,4.68,2.59S265.89,169.18,264.27,161.53Zm-29.42-11.34a48.5,48.5,0,0,1-6.19-10.81L230,136s-2.19-.06-4.49,2.82-7.51,6.73-7.51,6.73c-.23,10,14,23.08,15.93,28.62,6.58-1.14,9.31-5.12,9.31-5.12s6.93,7.44,11.5,10.29c0,0-2.27-4-7.95-14.3C243.05,158.3,239.11,155.88,234.85,150.19Z" style="fill:#fff;opacity:0.85"></path><path d="M206.65,151c-13.35-.84-29.47,10.84-32,30.7-2,15.86,5.72,61.37,7.09,69.73,1.81,11,4.12,12.54,15.52,18.3S246.65,296,246.65,296l15.5-19.3-48.39-32.29-1.51-61.07S209.86,156.47,206.65,151Z" style="fill:#ffa8a7"></path><path d="M206.73,148.36c-5.26,1.23-14.66,3.84-21.1,8.86-5.89,4.59-10.23,11-11.94,25.14s6.24,63.1,6.24,63.1,19,5.7,34.84-4.78L212.84,187S212.46,157.88,206.73,148.36Z" style="fill:#6A994E"></path><path d="M206.73,148.36c-5.26,1.23-14.66,3.84-21.1,8.86-5.89,4.59-10.23,11-11.94,25.14s6.24,63.1,6.24,63.1,19,5.7,34.84-4.78L212.84,187S212.46,157.88,206.73,148.36Z" style="fill:#fff;opacity:0.85"></path><path d="M215.5,234.09s-5.64,6.11-19.2,8.06c-11.62,1.67-17.49-1.38-17.49-1.38L180,250.4A47.84,47.84,0,0,0,198.84,252a41,41,0,0,0,17.1-7Z" style="fill:#6A994E"></path><path d="M256.86,272.47c3.51,1.78,8,1.45,11.72,2.38a58.22,58.22,0,0,1,9.38,3.74c3.21,1.44,6.37,3,9.58,4.4.8.36.71,1.25.35,2a5,5,0,0,1-3.47,2.48,11.35,11.35,0,0,1-4.38-.11,32,32,0,0,1-3.83-1c-1.3-.42-4.4-1.46-4.76.62Z" style="fill:#ffa8a7"></path><path d="M256.86,272.47c2.36,1.44,5.21,1.79,7.87,2.19a28.26,28.26,0,0,1,7.73,2.09c2.48,1,5,2.2,7.48,3.23s5,2.09,7.6,3c-2.38-1.35-4.81-2.58-7.25-3.8s-4.86-2.41-7.41-3.48a29.35,29.35,0,0,0-3.94-1.31,25.15,25.15,0,0,0-4.11-.6c-1.36-.11-2.71-.19-4-.38A15.67,15.67,0,0,1,256.86,272.47Z" style="fill:#f28f8f"></path><path d="M244.3,264.79s7.69,5.21,12.56,7.68L271.45,287c-.27,1.51,1.46,3.85,2.17,5.11,3.89,7,12.64,9.57,16.21,12.19s3.24,4.29,1.41,5.22-9.39-1.47-12.95-3.19a74.5,74.5,0,0,1-8.13-4.9s3.06,6.36,7.27,9,9.39,3.36,10.6,6.76c.71,2-2,2.1-3.28,2a28.74,28.74,0,0,1-3.41-.64,2.38,2.38,0,0,1-1.11,2,5.11,5.11,0,0,1-2.14.3c-3.54-.24-7.08-2.34-9.49-3.85,1.64,1.72,2.92,2.36,3.46,3.73a2,2,0,0,1-.59,2.15c-.73.62-2.24-.18-3.1-.61-6.94-3.49-9-5.6-12.24-8.88a34.12,34.12,0,0,1-4-5.6c-1-1.53-1.08-3.89-2.4-6.28s-3.11-5.43-5.46-6.83c-5.41-3.23-12.21-6.59-12.21-6.59S231.91,273.32,244.3,264.79Z" style="fill:#ffa8a7"></path><path d="M281.34,318.63c-3.76-1.72-7.62-3.26-10.93-5.64a23.26,23.26,0,0,1-4.33-4.26L262,304.05a54.21,54.21,0,0,0,3.54,5.12,20.44,20.44,0,0,0,4.4,4.46A39.17,39.17,0,0,0,281.34,318.63Z" style="fill:#f28f8f"></path><path d="M268.6,317.06a41.08,41.08,0,0,1-4.71-4.41c-1.5-1.54-2.81-3.26-4.34-4.83a25.21,25.21,0,0,0,3.75,5.38A15.91,15.91,0,0,0,268.6,317.06Z" style="fill:#f28f8f"></path></g></g></g><g id="freepik--watering-can--inject-53"><g id="freepik--watering-can--inject-53"><path d="M73.87,389.88l4.07-4.48a44.18,44.18,0,0,1-9.88-15.59c-3.94-10.33-2.89-24.76,2-27.58,5.19-3,11.89,1.18,12,1.22l3.3-5.08c-.4-.25-9.84-6.26-18.29-1.39-9.13,5.27-8.85,23.93-4.64,35A49.51,49.51,0,0,0,73.87,389.88Z" style="fill:#6A994E"></path><path d="M77.71,335.42a18.81,18.81,0,0,0-2.89,5.75A16.9,16.9,0,0,1,82,343.45l3.3-5.08A23.5,23.5,0,0,0,77.71,335.42Zm-6.66,40.76c-.31,3.59-.61,6.92-.84,9.62a35.93,35.93,0,0,0,3.66,4.08l4.07-4.48A41.42,41.42,0,0,1,71.05,376.18Z" style="opacity:0.1"></path><path d="M73.58,393.48h0L78.77,343l0,0c.41-4,3.25-8,8.57-11,11.53-6.65,30.23-6.64,41.77,0,5.31,3.07,8.14,7,8.55,11l0,0,5.19,50.45h0c.6,5.54-2.74,11.2-10.08,15.44-13.58,7.83-35.59,7.82-49.16,0C76.31,404.69,73,399,73.58,393.48Z" style="fill:#6A994E"></path><path d="M73.58,393.48h0L78.77,343l0,0c.41-4,3.25-8,8.57-11,11.53-6.65,30.23-6.64,41.77,0,5.31,3.07,8.14,7,8.55,11l0,0,5.19,50.45h0c.6,5.54-2.74,11.2-10.08,15.44-13.58,7.83-35.59,7.82-49.16,0C76.31,404.69,73,399,73.58,393.48Z" style="opacity:0.2"></path><path d="M92.46,353.14c8.72,5,22.85,5,31.58,0s8.72-13.19,0-18.23-22.86-5-31.59,0S83.75,348.11,92.46,353.14Z" style="opacity:0.30000000000000004"></path><path d="M92.46,351.22q-.79.46-1.5,1,.71.49,1.5,1c8.72,5,22.85,5,31.58,0a17.63,17.63,0,0,0,1.5-1,16.55,16.55,0,0,0-1.49-.95C115.32,346.21,101.19,346.21,92.46,351.22Z" style="fill:#6A994E"></path><path d="M92.46,351.22q-.79.46-1.5,1,.71.49,1.5,1c8.72,5,22.85,5,31.58,0a17.63,17.63,0,0,0,1.5-1,16.55,16.55,0,0,0-1.49-.95C115.32,346.21,101.19,346.21,92.46,351.22Z" style="fill:#fff;opacity:0.6000000000000001"></path><path d="M129,407.49c-6.3-4.14-8.46-12.74-6.19-18.53,0,0-3.82,6.66-1,12.31C124.82,407.14,129,407.49,129,407.49Z" style="opacity:0.2"></path><path d="M87.37,356.09c11.53,6.66,30.22,6.66,41.77,0s11.53-17.45,0-24.11-30.24-6.67-41.77,0S75.83,349.42,87.37,356.09Zm5.09-21.18c8.73-5,22.86-5,31.59,0s8.71,13.21,0,18.23-22.86,5-31.58,0S83.75,339.94,92.46,334.91Z" style="fill:#6A994E"></path><path d="M125.93,384.45s2.49-2.58,15.16-6.61c3.88-1.23,9.83-2.76,12.06-3.73s2.58-3.94,4.25-6.49a13.9,13.9,0,0,1,6.74-5.18l8.92,25.37s-3.34,1.67-8.9.42c-5.16-1.16-7.11-1.7-8.82-.56a27.87,27.87,0,0,0-4.93,4.67c-4.51,5.58-11,12.78-17.6,16.61C123.25,407.37,117.51,392.05,125.93,384.45Z" style="fill:#6A994E"></path><path d="M165,386c-5-4-7.37-12.25-5.24-18.33s7.92-7.74,12.94-3.7,7.37,12.25,5.24,18.33S170.06,390.06,165,386Z" style="fill:#6A994E"></path><path d="M165,386c-5-4-7.37-12.25-5.24-18.33s7.92-7.74,12.94-3.7,7.37,12.25,5.24,18.33S170.06,390.06,165,386Z" style="fill:#fff;opacity:0.2"></path><path d="M122,396.2c.86,6.1,5.14,11.82,10.78,12.74,6.64-3.82,13.09-11,17.6-16.6a27.87,27.87,0,0,1,4.93-4.67c1.71-1.15,3.66-.6,8.82.56s8.27-.15,8.82-.39c-2.44.86-5.3.32-7.94-1.82a15.66,15.66,0,0,1-4.25-5.56,23.1,23.1,0,0,1-4.65,1.79c-4.38,1.35-7.58,5.52-12.25,10.06s-9.72,9.77-14.91,9.54C124.26,401.65,122.72,398.64,122,396.2Z" style="opacity:0.1"></path><path d="M166,368.57a2.52,2.52,0,0,1-.74-2.6,1.1,1.1,0,0,1,1.84-.53,2.52,2.52,0,0,1,.74,2.6A1.1,1.1,0,0,1,166,368.57Z" style="fill:#263238"></path><path d="M167.65,373.9a2.5,2.5,0,0,1-.75-2.6,1.1,1.1,0,0,1,1.84-.52,2.5,2.5,0,0,1,.74,2.6A1.09,1.09,0,0,1,167.65,373.9Z" style="fill:#263238"></path><path d="M169.26,379.24a2.5,2.5,0,0,1-.74-2.6,1.09,1.09,0,0,1,1.83-.53,2.5,2.5,0,0,1,.75,2.6A1.1,1.1,0,0,1,169.26,379.24Z" style="fill:#263238"></path><path d="M170.87,384.57a2.52,2.52,0,0,1-.74-2.6,1.09,1.09,0,0,1,1.83-.53,2.52,2.52,0,0,1,.75,2.61A1.09,1.09,0,0,1,170.87,384.57Z" style="fill:#263238"></path><path d="M162.71,372.32a2.52,2.52,0,0,1-.74-2.6,1.09,1.09,0,0,1,1.84-.52,2.51,2.51,0,0,1,.74,2.6A1.09,1.09,0,0,1,162.71,372.32Z" style="fill:#263238"></path><path d="M170.88,370.1a2.52,2.52,0,0,1-.75-2.61A1.1,1.1,0,0,1,172,367a2.5,2.5,0,0,1,.74,2.6A1.09,1.09,0,0,1,170.88,370.1Z" style="fill:#263238"></path><path d="M164.46,377.68a2.5,2.5,0,0,1-.75-2.6,1.1,1.1,0,0,1,1.84-.52,2.5,2.5,0,0,1,.74,2.6A1.09,1.09,0,0,1,164.46,377.68Z" style="fill:#263238"></path><path d="M172.62,375.46a2.52,2.52,0,0,1-.74-2.6,1.09,1.09,0,0,1,1.83-.53,2.5,2.5,0,0,1,.75,2.6A1.1,1.1,0,0,1,172.62,375.46Z" style="fill:#263238"></path><path d="M166.2,383.05a2.53,2.53,0,0,1-.74-2.61,1.09,1.09,0,0,1,1.83-.52,2.5,2.5,0,0,1,.75,2.6A1.1,1.1,0,0,1,166.2,383.05Z" style="fill:#263238"></path><path d="M174.36,380.82a2.52,2.52,0,0,1-.74-2.6,1.1,1.1,0,0,1,1.84-.53,2.52,2.52,0,0,1,.74,2.6A1.1,1.1,0,0,1,174.36,380.82Z" style="fill:#263238"></path></g></g><g id="freepik--Trowel--inject-53"><g id="freepik--trowel--inject-53"><path d="M378.4,301.72a2.73,2.73,0,0,0,1.18,2.53l21.2,12.06a5.53,5.53,0,1,0,5.46-9.6l-21.18-12a2.72,2.72,0,0,0-2.8.26A8.62,8.62,0,0,0,378.4,301.72Z" style="fill:#6A994E"></path><path d="M378.4,301.72a8.73,8.73,0,0,1,2.46-5.66c-1.58,2.27-1.8,4.43,2.95,7.19s15.31,8.8,17.35,9.95,5.95,2.4,8-1.23a5.24,5.24,0,0,1-.67,2.37,5.61,5.61,0,0,1-7.69,2l-21.2-12.06A2.73,2.73,0,0,1,378.4,301.72Z" style="opacity:0.15"></path><path d="M407.32,311.51a4.17,4.17,0,0,0-1.87,3.28A1.33,1.33,0,0,0,406,316l1.6.89,2.64-4.64-1.59-.89A1.3,1.3,0,0,0,407.32,311.51Z" style="fill:#455a64"></path><path d="M407.06,315.69c0,1.21.86,1.69,1.9,1.08a4.2,4.2,0,0,0,1.87-3.28c0-1.21-.86-1.69-1.9-1.08A4.17,4.17,0,0,0,407.06,315.69Z" style="fill:#263238"></path><path d="M408,315.44a2.71,2.71,0,0,1,1.2-2.11.81.81,0,0,1,.91-.06l3.89,2.25a11.52,11.52,0,0,1,5.74,10v3.34A10.6,10.6,0,0,0,425,338l3.14,1.82-1.71,3-3.14-1.82a14,14,0,0,1-7-12.11v-3.34a8.09,8.09,0,0,0-4-7l-3.93-2.27h0A.86.86,0,0,1,408,315.44Z" style="fill:#455a64"></path><path d="M406.58,346.51l19.58-6.3,11.6-11.7a3.7,3.7,0,0,1,4.87,1.14L462,358.77a2.51,2.51,0,0,1,.5,1.31c0,.18,0,.86,0,1,0,.74-.69,1.09-1.94.81L407,350c-1-.22-1.49-.64-1.5-1.12,0-.18,0-.88,0-1.06C405.46,347.41,405.83,347,406.58,346.51Z" style="fill:#263238"></path><path d="M437.76,328.51l-11.6,11.7-19.58,6.3c-1.64.95-1.47,2.05.38,2.46l53.62,11.91c1.85.41,2.5-.54,1.45-2.11l-19.4-29.12A3.7,3.7,0,0,0,437.76,328.51Z" style="fill:#455a64"></path><path d="M462.27,360.68a1.88,1.88,0,0,1-1.68.2L407,349c-1.85-.41-2-1.51-.38-2.46l19.58-6.3,36.11,20.47Z" style="fill:#37474f"></path></g></g><g id="freepik--Sprout--inject-53"><g id="freepik--sprout--inject-53"><path d="M294.6,409.29a14.45,14.45,0,0,0,25.53,7.49,11.13,11.13,0,0,0,20.58-4.34c1.65,2.55,6,4,9.77,3.52s7.61-3.79,7.58-7.62c0-2.8-1.08-4.86-2-5.31a6.82,6.82,0,0,0,6.32-3.5c1.76-3.33,1.06-7.31.16-8.67-2.73-4.12-5.74-5.11-10.67-4.93.83-4.21-.26-9.44-4-11.6a10,10,0,0,0-11.59.84,8.3,8.3,0,0,0-4.78-7.34,13.34,13.34,0,0,0-11.74,0,8.07,8.07,0,0,0-4.43,5c-2.71-6-12.08-2.54-11.07,3.63a13.08,13.08,0,0,0-10-4.66,9.67,9.67,0,0,0-7.29,3.64,11.51,11.51,0,0,0-2.72,6.8A13.35,13.35,0,0,0,286,388.5,11.57,11.57,0,0,0,277.7,394c-2.71,4.53-2,10,2.22,13.19S289.81,409.79,294.6,409.29Z" style="fill:#b16668"></path><path d="M324.21,423.28a2.32,2.32,0,0,0-.82.31,3.5,3.5,0,1,0-1,3.22,2.48,2.48,0,1,0,1.79-3.53Z" style="fill:#b16668"></path><path d="M263.9,401.64a2.53,2.53,0,0,1,.82.31,3.49,3.49,0,1,1,2.81,4.17,3.37,3.37,0,0,1-1.84-.95,2.48,2.48,0,1,1-1.79-3.53Z" style="fill:#b16668"></path><path d="M371,406.77a2.37,2.37,0,0,0-.83.31,3.49,3.49,0,1,0-1,3.22,2.47,2.47,0,0,0,2.65,1.36,2.48,2.48,0,1,0-.86-4.89Z" style="fill:#b16668"></path><path d="M357.89,409.78c-1.62,3.33-5.29,3.85-8.24,3.67-4.66-.3-7.85-3-9.84-7,.08,2.08-.06,9.67-7.91,11.52-6,1.42-11.3-4.18-11.54-8.07a11.46,11.46,0,0,1-14.26,3.38c-4.71-2.52-8.15-8.6-6.24-13.58-3.6,1.36-6,1.27-9.66,1.27s-7.52-1.19-9.58-4.17a6.93,6.93,0,0,1-1-5.15A11.11,11.11,0,0,0,277.7,394c-2.71,4.53-2,10,2.22,13.19s9.89,2.64,14.68,2.14a14.45,14.45,0,0,0,25.53,7.49,11.13,11.13,0,0,0,20.58-4.34c1.65,2.55,6,4,9.77,3.52C353.8,415.57,357.11,413,357.89,409.78Z" style="fill:#9a4a4d"></path><path d="M340.13,383.57c-.5-.31-1-.64-1.49-.93a12.77,12.77,0,0,0-1.79-.75,14.38,14.38,0,0,0-4.73-.81,15.05,15.05,0,0,0-4.66.75,8.56,8.56,0,0,0-3.55,1.89,24.43,24.43,0,0,0-7-2.43,23.91,23.91,0,0,0-5.6-.35c-1.62.07-3.57.13-5,1-.2.12-.16.62.1.64,1.81.18,3.65-.11,5.48,0a27.3,27.3,0,0,1,4.83.85,25.27,25.27,0,0,1,8.87,4.4c1.28,1,3.17-.92,1.81-1.95-.41-.31-.85-.57-1.28-.85.37-.24.71-.49.91-.59.42-.23.84-.46,1.28-.66a13.9,13.9,0,0,1,5.09-1.16,13.45,13.45,0,0,1,6.56,1.18C340.16,383.91,340.23,383.63,340.13,383.57Z" style="fill:#9a4a4d"></path><g id="freepik--Plants--inject-53"><g id="freepik--plants--inject-53"><path d="M325.54,302.45c-2.94-3.86-5.89-11.82-1.27-21s13.34-15.81,14.55-15.63,4.53,10.59.47,21.88C335.32,298.79,328.18,301.11,325.54,302.45Z" style="fill:#6A994E"></path><path d="M325.54,302.45c-2.94-3.86-5.89-11.82-1.27-21s13.34-15.81,14.55-15.63,4.53,10.59.47,21.88C335.32,298.79,328.18,301.11,325.54,302.45Z" style="opacity:0.2"></path><path d="M331.15,327.25c-.85-4.78.15-13.21,8.44-19.23s19.08-8,20.07-7.26-.8,11.48-9.56,19.68C341.52,328.46,334.11,327.26,331.15,327.25Z" style="fill:#6A994E"></path><path d="M331.15,327.25c-.85-4.78.15-13.21,8.44-19.23s19.08-8,20.07-7.26-.8,11.48-9.56,19.68C341.52,328.46,334.11,327.26,331.15,327.25Z" style="opacity:0.2"></path><path d="M315.12,345.48c-4.86,0-13-2.44-17.48-11.64s-5.16-19.21-4.28-20.07,12.37,3,18.88,11.57C319.32,334.71,315.64,342.57,315.12,345.48Z" style="fill:#6A994E"></path><path d="M315.12,345.48c-4.86,0-13-2.44-17.48-11.64s-5.16-19.21-4.28-20.07,12.37,3,18.88,11.57C319.32,334.71,315.64,342.57,315.12,345.48Z" style="opacity:0.2"></path><path d="M323.86,343.92c.27,8,.87,31.59,1.87,38.57a5.56,5.56,0,0,0-1.82,1.23,21.76,21.76,0,0,0-2.61-1.18c-1.73-15.81-1.66-48.37.41-64.1,1.48-11.23,3.51-23.14,8.55-33.38.1-.22.69-.08.62.16-3.78,13.5-4.4,20.51-5.54,30.76A187.44,187.44,0,0,0,323.86,343.92Z" style="fill:#37474f"></path><path d="M320.25,352a60.64,60.64,0,0,1-9.46-9.82,34.39,34.39,0,0,1-6.32-11.37c-.16-.58.58,0,.79.28a98.49,98.49,0,0,0,7,9.34,44,44,0,0,0,9.26,8.17,2.73,2.73,0,0,1,1.08,2.95A1.44,1.44,0,0,1,320.25,352Z" style="fill:#37474f"></path><path d="M320.45,343.21c1.82-6.27,4.86-10.81,9.42-16.91a57.91,57.91,0,0,1,5.87-6.66c2.27-2.27,6.61-5.57,8.45-6.23.13-.05,1-.11.79.06a94.69,94.69,0,0,0-7.41,7.14,52.8,52.8,0,0,0-5.86,7.31,83.35,83.35,0,0,0-8.92,16.41C322.29,345.53,320.14,344.29,320.45,343.21Z" style="fill:#37474f"></path></g></g></g></g><g id="freepik--speech-bubble--inject-53"><g id="freepik--speech-bubble--inject-53"><g id="freepik--speech-bubble--inject-53"><path d="M334.7,165.9a29,29,0,1,1,34.76-21.8A29,29,0,0,1,334.7,165.9Z" style="fill:#fff"></path><path id="freepik--Heart--inject-53" d="M341.15,153.42Zm-5.75-27.11a6.89,6.89,0,0,0-2.51-.5,8.3,8.3,0,0,0-8.3,8.25c0,8.71,8.77,14.36,12.09,16.49l4.44,2.85,4.46-2.83c3.32-2.11,12.15-7.71,12.18-16.42a8.28,8.28,0,0,0-8.25-8.29c-3.38,0-6.21,2.54-7.52,5.08l-.89,1.72-.87-1.73A9.9,9.9,0,0,0,335.4,126.31Z" style="fill:#6A994E"></path><path d="M348.29,106.55a31.91,31.91,0,0,0-36.56,18.89l-9.81,1.43a1.85,1.85,0,0,0-.77,3.36l8.21,5.55a31.87,31.87,0,1,0,38.93-29.23Zm21.17,37.55a29,29,0,1,1-21.81-34.77A29,29,0,0,1,369.46,144.1Z" style="fill:#455a64"></path></g></g></g></svg>
